<?xml version="1.0" encoding="UTF-8" standalone="no"?>
<svg
   xmlns:dc="http://purl.org/dc/elements/1.1/"
   xmlns:cc="http://creativecommons.org/ns#"
   xmlns:rdf="http://www.w3.org/1999/02/22-rdf-syntax-ns#"
   xmlns:svg="http://www.w3.org/2000/svg"
   xmlns="http://www.w3.org/2000/svg"
   xmlns:xlink="http://www.w3.org/1999/xlink"
   xmlns:sodipodi="http://sodipodi.sourceforge.net/DTD/sodipodi-0.dtd"
   xmlns:inkscape="http://www.inkscape.org/namespaces/inkscape"
   width="48"
   height="48"
   viewBox="0 0 12.7 12.7"
   version="1.1"
   id="svg8"
   sodipodi:docname="io.elementary.videos2.svg"
   inkscape:version="1.0.1 (3bc2e813f5, 2020-09-07)"
   inkscape:export-filename="/mnt/data/Developments/projects/icons/png/24/io.elementary.videos2.png"
   inkscape:export-xdpi="152.65135"
   inkscape:export-ydpi="152.65135">
  <defs
     id="defs2">
    <linearGradient
       inkscape:collect="always"
       id="linearGradient1007">
      <stop
         style="stop-color:#ffd5d5;stop-opacity:1"
         offset="0"
         id="stop1003" />
      <stop
         style="stop-color:#800000;stop-opacity:1"
         offset="1"
         id="stop1005" />
    </linearGradient>
    <radialGradient
       inkscape:collect="always"
       xlink:href="#linearGradient1007"
       id="radialGradient1009"
       cx="1.5484881"
       cy="0.56700027"
       fx="1.5484881"
       fy="0.56700027"
       r="1.9967067"
       gradientUnits="userSpaceOnUse"
       gradientTransform="matrix(1.896449,2.1051451,-1.30848,1.17887,3.6798182,-0.19018884)" />
  </defs>
  <sodipodi:namedview
     id="base"
     pagecolor="#ffffff"
     bordercolor="#666666"
     borderopacity="1.0"
     inkscape:pageopacity="0.0"
     inkscape:pageshadow="2"
     inkscape:zoom="12.903148"
     inkscape:cx="30.318417"
     inkscape:cy="22.600676"
     inkscape:document-units="px"
     inkscape:current-layer="layer1"
     inkscape:document-rotation="0"
     showgrid="false"
     units="px"
     inkscape:window-width="1280"
     inkscape:window-height="961"
     inkscape:window-x="1440"
     inkscape:window-y="30"
     inkscape:window-maximized="1" />
  <metadata
     id="metadata5">
    <rdf:RDF>
      <cc:Work
         rdf:about="">
        <dc:format>image/svg+xml</dc:format>
        <dc:type
           rdf:resource="http://purl.org/dc/dcmitype/StillImage" />
        <dc:title></dc:title>
      </cc:Work>
    </rdf:RDF>
  </metadata>
  <g
     inkscape:label="Слой 1"
     inkscape:groupmode="layer"
     id="layer1">
    <circle
       style="fill:url(#radialGradient1009);fill-opacity:1;stroke-width:0.821863"
       id="path142"
       cx="6.3499999"
       cy="6.3499999"
       r="5.8282504" />
    <path
       id="rect97"
       style="fill:#ffffff;stroke-width:0.256122"
       d="m 2.5446783,3.5501594 c -0.2108059,0 -0.3806824,0.1698765 -0.3806824,0.3806826 v 4.8383169 c 0,0.2108064 0.1698765,0.3806817 0.3806824,0.3806817 h 7.6111447 c 0.210806,0 0.380181,-0.1698753 0.380181,-0.3806817 v -4.838317 c 0,-0.210806 -0.169375,-0.3806823 -0.380181,-0.3806825 z m 0.169081,0.2911394 h 1.0274918 c 0.073331,0 0.1320634,0.059232 0.1320634,0.1325638 v 0.192592 c 0,0.073331 -0.058731,0.1325634 -0.1320634,0.1325634 H 2.7137593 c -0.073331,0 -0.1325635,-0.059233 -0.1325635,-0.1325634 v -0.192592 c 0,-0.073331 0.059232,-0.1325638 0.1325635,-0.1325638 z m 2.1220162,0 h 1.027492 c 0.073331,0 0.1325633,0.059232 0.1325633,0.1325638 v 0.192592 c 0,0.073331 -0.059233,0.1325634 -0.1325634,0.1325634 H 4.8357755 c -0.073331,0 -0.1325633,-0.059233 -0.1325633,-0.1325634 v -0.192592 c 0,-0.073331 0.059233,-0.1325638 0.1325633,-0.1325638 z m 2.1220164,0 h 1.0274918 c 0.07333,0 0.1325629,0.059232 0.1325629,0.1325638 v 0.192592 c 0,0.073331 -0.059232,0.1325634 -0.1325629,0.1325634 H 6.9577919 c -0.073331,0 -0.1320634,-0.059233 -0.1320634,-0.1325634 v -0.192592 c 0,-0.073331 0.058731,-0.1325638 0.1320634,-0.1325638 z m 2.1225158,0 h 1.0274913 c 0.07333,0 0.132064,0.059232 0.132064,0.1325638 v 0.192592 c 0,0.073331 -0.05873,0.1325634 -0.132064,0.1325634 H 9.0803077 c -0.073331,0 -0.1325638,-0.059233 -0.1325638,-0.1325634 v -0.192592 c 0,-0.073331 0.059231,-0.1325638 0.1325638,-0.1325638 z M 2.8038025,4.5081183 h 7.1394176 c 0.1511199,0 0.2731319,0.1215128 0.2731319,0.2726307 v 3.1375023 c 0,0.1511172 -0.122012,0.2726301 -0.2731319,0.2726301 H 2.8038025 c -0.1511176,0 -0.2731309,-0.1215129 -0.2731309,-0.2726301 V 4.7807489 c 0,-0.1511179 0.1220133,-0.2726306 0.2731309,-0.2726306 z m -0.131563,3.934884 h 1.0274919 c 0.073331,0 0.1325633,0.058729 0.1325633,0.1320634 v 0.1930925 c 0,0.07333 -0.059233,0.1320634 -0.1325633,0.1320634 H 2.6722395 c -0.073331,0 -0.1320633,-0.058729 -0.1320633,-0.1320634 V 8.5750657 c 0,-0.073331 0.058732,-0.1320634 0.1320633,-0.1320634 z m 2.1220158,0 h 1.0279925 c 0.073331,0 0.1320633,0.058729 0.1320633,0.1320634 v 0.1930925 c 0,0.07333 -0.058733,0.1320634 -0.1320633,0.1320634 H 4.7942553 c -0.073331,0 -0.1320632,-0.058729 -0.1320632,-0.1320634 V 8.5750657 c 0,-0.073331 0.058732,-0.1320634 0.1320632,-0.1320634 z m 2.1225168,0 h 1.0274914 c 0.073331,0 0.1320642,0.058729 0.1320642,0.1320634 v 0.1930925 c 0,0.07333 -0.058729,0.1320634 -0.1320642,0.1320634 H 6.9167721 c -0.073331,0 -0.1325634,-0.058729 -0.1325634,-0.1320634 V 8.5750657 c 0,-0.073331 0.059233,-0.1320634 0.1325634,-0.1320634 z m 2.1220158,0 H 10.06628 c 0.07333,0 0.132563,0.058729 0.132563,0.1320634 v 0.1930925 c 0,0.07333 -0.05923,0.1320634 -0.132563,0.1320634 H 9.0387879 c -0.073331,0 -0.1325637,-0.058729 -0.1325637,-0.1320634 V 8.5750657 c 0,-0.073331 0.059231,-0.1320634 0.1325637,-0.1320634 z" />
    <path
       id="rect177"
       style="fill:#f2f2f2;stroke-width:0.254863"
       d="M 4.7737054,4.7539072 7.9262947,6.3500002 4.7737054,7.9460928 Z"
       sodipodi:nodetypes="ccccc" />
  </g>
</svg>
