<?xml version="1.0" encoding="UTF-8" standalone="no"?>
<svg
   xmlns:dc="http://purl.org/dc/elements/1.1/"
   xmlns:cc="http://creativecommons.org/ns#"
   xmlns:rdf="http://www.w3.org/1999/02/22-rdf-syntax-ns#"
   xmlns:svg="http://www.w3.org/2000/svg"
   xmlns="http://www.w3.org/2000/svg"
   xmlns:xlink="http://www.w3.org/1999/xlink"
   xmlns:sodipodi="http://sodipodi.sourceforge.net/DTD/sodipodi-0.dtd"
   xmlns:inkscape="http://www.inkscape.org/namespaces/inkscape"
   width="24"
   height="24"
   viewBox="0 0 6.35 6.35"
   version="1.1"
   id="svg8"
   sodipodi:docname="io.elementary.videos2.svg"
   inkscape:version="1.0.1 (3bc2e813f5, 2020-09-07)"
   inkscape:export-filename="/mnt/data/Developments/projects/icons/png/24/io.elementary.videos2.png"
   inkscape:export-xdpi="152.65135"
   inkscape:export-ydpi="152.65135">
  <defs
     id="defs2">
    <linearGradient
       inkscape:collect="always"
       id="linearGradient1007">
      <stop
         style="stop-color:#ffd5d5;stop-opacity:1"
         offset="0"
         id="stop1003" />
      <stop
         style="stop-color:#800000;stop-opacity:1"
         offset="1"
         id="stop1005" />
    </linearGradient>
    <radialGradient
       inkscape:collect="always"
       xlink:href="#linearGradient1007"
       id="radialGradient1009"
       cx="1.5484881"
       cy="0.56700027"
       fx="1.5484881"
       fy="0.56700027"
       r="1.9967067"
       gradientUnits="userSpaceOnUse"
       gradientTransform="matrix(0.94446965,1.0484044,-0.6516493,0.58710081,1.8451954,-0.0821455)" />
  </defs>
  <sodipodi:namedview
     id="base"
     pagecolor="#ffffff"
     bordercolor="#666666"
     borderopacity="1.0"
     inkscape:pageopacity="0.0"
     inkscape:pageshadow="2"
     inkscape:zoom="12.903148"
     inkscape:cx="20.172967"
     inkscape:cy="28.610862"
     inkscape:document-units="px"
     inkscape:current-layer="layer1"
     inkscape:document-rotation="0"
     showgrid="false"
     units="px"
     inkscape:window-width="1280"
     inkscape:window-height="961"
     inkscape:window-x="1440"
     inkscape:window-y="30"
     inkscape:window-maximized="1" />
  <metadata
     id="metadata5">
    <rdf:RDF>
      <cc:Work
         rdf:about="">
        <dc:format>image/svg+xml</dc:format>
        <dc:type
           rdf:resource="http://purl.org/dc/dcmitype/StillImage" />
        <dc:title></dc:title>
      </cc:Work>
    </rdf:RDF>
  </metadata>
  <g
     inkscape:label="Слой 1"
     inkscape:groupmode="layer"
     id="layer1">
    <circle
       style="fill:url(#radialGradient1009);fill-opacity:1;stroke-width:0.409307"
       id="path142"
       cx="3.175"
       cy="3.175"
       r="2.9025857" />
    <path
       id="rect97"
       style="fill:#ffffff;stroke-width:0.127554"
       d="m 1.2798731,1.780623 c -0.1049856,0 -0.1895874,0.084602 -0.1895874,0.1895875 v 2.409579 c 0,0.1049857 0.084602,0.1895875 0.1895874,0.1895875 H 5.070376 c 0.1049858,0 0.1893383,-0.084602 0.1893383,-0.1895875 v -2.409579 c 0,-0.1049856 -0.084353,-0.1895873 -0.1893383,-0.1895875 z m 0.084206,0.1449933 h 0.5117116 c 0.03652,0 0.06577,0.029499 0.06577,0.06602 v 0.095915 c 0,0.03652 -0.02925,0.06602 -0.06577,0.06602 H 1.3640788 c -0.03652,0 -0.06602,-0.029499 -0.06602,-0.06602 v -0.095915 c 0,-0.03652 0.029499,-0.066019 0.06602,-0.066019 z m 1.0568067,0 h 0.5117113 c 0.03652,0 0.06602,0.029499 0.06602,0.06602 v 0.095915 c 0,0.03652 -0.029499,0.06602 -0.06602,0.06602 H 2.4208855 c -0.03652,0 -0.066019,-0.029499 -0.066019,-0.06602 v -0.095915 c 0,-0.03652 0.029499,-0.066019 0.066019,-0.066019 z m 1.0568066,0 h 0.5117117 c 0.03652,0 0.066019,0.029499 0.066019,0.06602 v 0.095915 c 0,0.03652 -0.029498,0.06602 -0.066019,0.06602 h -0.511712 c -0.03652,0 -0.065771,-0.029499 -0.065771,-0.06602 v -0.095915 c 0,-0.03652 0.02925,-0.066019 0.065771,-0.066019 z m 1.0570558,0 h 0.5117117 c 0.036519,0 0.06577,0.029499 0.06577,0.06602 v 0.095915 c 0,0.03652 -0.029252,0.06602 -0.06577,0.06602 h -0.511712 c -0.03652,0 -0.06602,-0.029499 -0.06602,-0.06602 v -0.095915 c 0,-0.03652 0.029499,-0.066019 0.06602,-0.066019 z M 1.4089221,2.2577058 H 4.964496 c 0.07526,0 0.1360246,0.060516 0.1360246,0.1357755 v 1.5625392 c 0,0.07526 -0.060765,0.1357754 -0.1360246,0.1357754 H 1.4089221 c -0.07526,0 -0.1360247,-0.060516 -0.1360246,-0.1357754 V 2.3934813 c 0,-0.07526 0.060765,-0.1357755 0.1360246,-0.1357755 z m -0.065521,1.9596513 h 0.5117117 c 0.03652,0 0.06602,0.02925 0.06602,0.065771 v 0.096164 c 0,0.03652 -0.029499,0.06577 -0.06602,0.06577 h -0.511712 c -0.03652,0 -0.06577,-0.029249 -0.06577,-0.06577 v -0.096164 c 0,-0.03652 0.02925,-0.065771 0.06577,-0.06577 z m 1.0568066,0 h 0.5119608 c 0.03652,0 0.06577,0.02925 0.06577,0.065771 v 0.096164 c 0,0.03652 -0.02925,0.06577 -0.06577,0.06577 H 2.4002077 c -0.03652,0 -0.06577,-0.029249 -0.06577,-0.06577 v -0.096164 c 0,-0.03652 0.02925,-0.065771 0.06577,-0.06577 z m 1.0570559,0 h 0.5117116 c 0.03652,0 0.065771,0.02925 0.065771,0.065771 v 0.096164 c 0,0.03652 -0.029249,0.06577 -0.065771,0.06577 H 3.4572636 c -0.03652,0 -0.066019,-0.029249 -0.066019,-0.06577 v -0.096164 c 0,-0.03652 0.029499,-0.065771 0.06602,-0.06577 z m 1.0568066,0 h 0.5117117 c 0.036519,0 0.06602,0.02925 0.06602,0.065771 v 0.096164 c 0,0.03652 -0.029502,0.06577 -0.06602,0.06577 h -0.511712 c -0.03652,0 -0.066019,-0.029249 -0.066019,-0.06577 v -0.096164 c 0,-0.03652 0.029498,-0.065771 0.06602,-0.06577 z" />
    <path
       id="rect177"
       style="fill:#f2f2f2;stroke-width:0.126927"
       d="M 2.3899736,2.3801135 3.9600264,3.175 2.3899736,3.9698865 Z"
       sodipodi:nodetypes="ccccc" />
  </g>
</svg>
