<?xml version="1.0" encoding="UTF-8" standalone="no"?>
<svg
   xmlns:dc="http://purl.org/dc/elements/1.1/"
   xmlns:cc="http://creativecommons.org/ns#"
   xmlns:rdf="http://www.w3.org/1999/02/22-rdf-syntax-ns#"
   xmlns:svg="http://www.w3.org/2000/svg"
   xmlns="http://www.w3.org/2000/svg"
   xmlns:xlink="http://www.w3.org/1999/xlink"
   xmlns:sodipodi="http://sodipodi.sourceforge.net/DTD/sodipodi-0.dtd"
   xmlns:inkscape="http://www.inkscape.org/namespaces/inkscape"
   width="32"
   height="32"
   viewBox="0 0 8.4666667 8.4666667"
   version="1.1"
   id="svg8"
   sodipodi:docname="io.elementary.videos2.svg"
   inkscape:version="1.0.1 (3bc2e813f5, 2020-09-07)"
   inkscape:export-filename="/mnt/data/Developments/projects/icons/png/24/io.elementary.videos2.png"
   inkscape:export-xdpi="152.65135"
   inkscape:export-ydpi="152.65135">
  <defs
     id="defs2">
    <linearGradient
       inkscape:collect="always"
       id="linearGradient1007">
      <stop
         style="stop-color:#ffd5d5;stop-opacity:1"
         offset="0"
         id="stop1003" />
      <stop
         style="stop-color:#800000;stop-opacity:1"
         offset="1"
         id="stop1005" />
    </linearGradient>
    <radialGradient
       inkscape:collect="always"
       xlink:href="#linearGradient1007"
       id="radialGradient1009"
       cx="1.5484881"
       cy="0.56700027"
       fx="1.5484881"
       fy="0.56700027"
       r="1.9967067"
       gradientUnits="userSpaceOnUse"
       gradientTransform="matrix(1.2554731,1.3936324,-0.86623023,0.78042664,2.4656389,-0.0963541)" />
  </defs>
  <sodipodi:namedview
     id="base"
     pagecolor="#ffffff"
     bordercolor="#666666"
     borderopacity="1.0"
     inkscape:pageopacity="0.0"
     inkscape:pageshadow="2"
     inkscape:zoom="12.903148"
     inkscape:cx="20.172967"
     inkscape:cy="28.610862"
     inkscape:document-units="px"
     inkscape:current-layer="layer1"
     inkscape:document-rotation="0"
     showgrid="false"
     units="px"
     inkscape:window-width="1280"
     inkscape:window-height="961"
     inkscape:window-x="1440"
     inkscape:window-y="30"
     inkscape:window-maximized="1" />
  <metadata
     id="metadata5">
    <rdf:RDF>
      <cc:Work
         rdf:about="">
        <dc:format>image/svg+xml</dc:format>
        <dc:type
           rdf:resource="http://purl.org/dc/dcmitype/StillImage" />
        <dc:title></dc:title>
      </cc:Work>
    </rdf:RDF>
  </metadata>
  <g
     inkscape:label="Слой 1"
     inkscape:groupmode="layer"
     id="layer1">
    <circle
       style="fill:url(#radialGradient1009);fill-opacity:1;stroke-width:0.544087"
       id="path142"
       cx="4.2333336"
       cy="4.2333336"
       r="3.8583753" />
    <path
       id="rect97"
       style="fill:#ffffff;stroke-width:0.169556"
       d="m 1.7141621,2.3798034 c -0.1395562,0 -0.2520165,0.1124603 -0.2520165,0.2520166 v 3.2030268 c 0,0.1395563 0.1124603,0.2520165 0.2520165,0.2520165 h 5.0386737 c 0.1395565,0 0.2516853,-0.1124602 0.2516853,-0.2520165 V 2.63182 c 0,-0.1395563 -0.1121288,-0.2520164 -0.2516853,-0.2520166 z m 0.1119337,0.192738 h 0.6802126 c 0.048546,0 0.087428,0.039213 0.087428,0.087759 v 0.1274985 c 0,0.048546 -0.038882,0.087759 -0.087428,0.087759 H 1.8260958 c -0.048546,0 -0.087759,-0.039213 -0.087759,-0.087759 V 2.6603001 c 0,-0.048546 0.039212,-0.087759 0.087759,-0.087759 z m 1.4048015,0 h 0.6802125 c 0.048546,0 0.087759,0.039213 0.087759,0.087759 v 0.1274985 c 0,0.048546 -0.039213,0.087759 -0.087759,0.087759 H 3.2308973 c -0.048546,0 -0.087759,-0.039213 -0.087759,-0.087759 V 2.6603001 c 0,-0.048546 0.039213,-0.087759 0.087759,-0.087759 z m 1.4048014,0 h 0.6802127 c 0.048546,0 0.087759,0.039213 0.087759,0.087759 v 0.1274985 c 0,0.048546 -0.039212,0.087759 -0.087759,0.087759 H 4.6356987 c -0.048546,0 -0.087428,-0.039213 -0.087428,-0.087759 V 2.6603001 c 0,-0.048546 0.038882,-0.087759 0.087428,-0.087759 z m 1.4051325,0 H 6.721044 c 0.048544,0 0.087427,0.039213 0.087427,0.087759 v 0.1274985 c 0,0.048546 -0.038884,0.087759 -0.087427,0.087759 H 6.0408312 c -0.048546,0 -0.087759,-0.039213 -0.087759,-0.087759 V 2.6603001 c 0,-0.048546 0.039213,-0.087759 0.087759,-0.087759 z M 1.8857055,3.0139843 h 4.7263852 c 0.100042,0 0.180816,0.080443 0.180816,0.1804848 v 2.0770662 c 0,0.1000417 -0.080774,0.1804848 -0.180816,0.1804848 H 1.8857055 c -0.1000417,0 -0.1808161,-0.080443 -0.180816,-0.1804848 V 3.1944691 c 0,-0.1000417 0.080774,-0.1804848 0.180816,-0.1804848 z m -0.087096,2.6049429 h 0.6802127 c 0.048546,0 0.087759,0.038881 0.087759,0.087428 v 0.1278296 c 0,0.048546 -0.039213,0.087427 -0.087759,0.087427 H 1.7986091 c -0.048546,0 -0.087427,-0.038881 -0.087427,-0.087427 v -0.12783 c 0,-0.048546 0.038882,-0.087428 0.087427,-0.087428 z m 1.4048014,0 h 0.6805439 c 0.048546,0 0.087427,0.038881 0.087427,0.087428 v 0.1278296 c 0,0.048546 -0.038882,0.087427 -0.087427,0.087427 H 3.2034105 c -0.048546,0 -0.087427,-0.038881 -0.087427,-0.087427 v -0.12783 c 0,-0.048546 0.038882,-0.087428 0.087427,-0.087428 z m 1.4051327,0 h 0.6802126 c 0.048546,0 0.087428,0.038881 0.087428,0.087428 v 0.1278296 c 0,0.048546 -0.038881,0.087427 -0.087428,0.087427 H 4.6085432 c -0.048546,0 -0.087759,-0.038881 -0.087759,-0.087427 v -0.12783 c 0,-0.048546 0.039213,-0.087428 0.087759,-0.087428 z m 1.4048014,0 h 0.6802127 c 0.048544,0 0.087759,0.038881 0.087759,0.087428 v 0.1278296 c 0,0.048546 -0.039216,0.087427 -0.087759,0.087427 H 6.0133446 c -0.048546,0 -0.087759,-0.038881 -0.087759,-0.087427 v -0.12783 c 0,-0.048546 0.039212,-0.087428 0.087759,-0.087428 z" />
    <path
       id="rect177"
       style="fill:#f2f2f2;stroke-width:0.168722"
       d="M 3.1898064,3.1766995 5.2768603,4.2333334 3.1898064,5.2899672 Z"
       sodipodi:nodetypes="ccccc" />
  </g>
</svg>
