<?xml version="1.0" encoding="UTF-8" standalone="no"?>
<svg
   xmlns:dc="http://purl.org/dc/elements/1.1/"
   xmlns:cc="http://creativecommons.org/ns#"
   xmlns:rdf="http://www.w3.org/1999/02/22-rdf-syntax-ns#"
   xmlns:svg="http://www.w3.org/2000/svg"
   xmlns="http://www.w3.org/2000/svg"
   xmlns:xlink="http://www.w3.org/1999/xlink"
   xmlns:sodipodi="http://sodipodi.sourceforge.net/DTD/sodipodi-0.dtd"
   xmlns:inkscape="http://www.inkscape.org/namespaces/inkscape"
   width="128"
   height="128"
   viewBox="0 0 33.866667 33.866667"
   version="1.1"
   id="svg8"
   sodipodi:docname="io.elementary.videos2.svg"
   inkscape:version="1.0.1 (3bc2e813f5, 2020-09-07)"
   inkscape:export-filename="/mnt/data/Developments/projects/icons/png/24/io.elementary.videos2.png"
   inkscape:export-xdpi="152.65135"
   inkscape:export-ydpi="152.65135">
  <defs
     id="defs2">
    <linearGradient
       inkscape:collect="always"
       id="linearGradient1007">
      <stop
         style="stop-color:#ffd5d5;stop-opacity:1"
         offset="0"
         id="stop1003" />
      <stop
         style="stop-color:#800000;stop-opacity:1"
         offset="1"
         id="stop1005" />
    </linearGradient>
    <radialGradient
       inkscape:collect="always"
       xlink:href="#linearGradient1007"
       id="radialGradient1009"
       cx="1.5484881"
       cy="0.56700027"
       fx="1.5484881"
       fy="0.56700027"
       r="1.9967067"
       gradientUnits="userSpaceOnUse"
       gradientTransform="matrix(4.959839,5.5056478,-3.4221065,3.0831331,9.9499259,-0.17141682)" />
  </defs>
  <sodipodi:namedview
     id="base"
     pagecolor="#ffffff"
     bordercolor="#666666"
     borderopacity="1.0"
     inkscape:pageopacity="0.0"
     inkscape:pageshadow="2"
     inkscape:zoom="4.5619517"
     inkscape:cx="68.495133"
     inkscape:cy="73.823555"
     inkscape:document-units="px"
     inkscape:current-layer="layer1"
     inkscape:document-rotation="0"
     showgrid="false"
     units="px"
     inkscape:window-width="1280"
     inkscape:window-height="961"
     inkscape:window-x="1440"
     inkscape:window-y="30"
     inkscape:window-maximized="1" />
  <metadata
     id="metadata5">
    <rdf:RDF>
      <cc:Work
         rdf:about="">
        <dc:format>image/svg+xml</dc:format>
        <dc:type
           rdf:resource="http://purl.org/dc/dcmitype/StillImage" />
        <dc:title></dc:title>
      </cc:Work>
    </rdf:RDF>
  </metadata>
  <g
     inkscape:label="Слой 1"
     inkscape:groupmode="layer"
     id="layer1">
    <circle
       style="fill:url(#radialGradient1009);fill-opacity:1;stroke-width:2.14946"
       id="path142"
       cx="16.933334"
       cy="16.933334"
       r="15.242796" />
    <path
       id="rect97"
       style="fill:#ffffff;stroke-width:0.669845"
       d="m 6.9811614,9.6108268 c -0.5513268,0 -0.9956096,0.4442832 -0.9956096,0.9956102 v 12.653794 c 0,0.551327 0.4442828,0.995609 0.9956096,0.995609 H 26.886814 c 0.551328,0 0.994301,-0.444282 0.994301,-0.995609 V 10.606437 c 0,-0.551327 -0.442973,-0.9956096 -0.994301,-0.9956102 z M 7.423364,10.372252 h 2.68723 c 0.191784,0 0.345389,0.154915 0.345389,0.346698 v 0.503692 c 0,0.191783 -0.153605,0.346697 -0.345389,0.346697 h -2.68723 c -0.1917838,0 -0.3466973,-0.154914 -0.3466973,-0.346697 V 10.71895 c 0,-0.191784 0.1549118,-0.346698 0.3466973,-0.346698 z m 5.549772,0 h 2.68723 c 0.191784,0 0.346697,0.154915 0.346697,0.346698 v 0.503692 c 0,0.191783 -0.154914,0.346697 -0.346697,0.346697 h -2.68723 c -0.191784,0 -0.346697,-0.154914 -0.346697,-0.346697 V 10.71895 c 0,-0.191784 0.154913,-0.346698 0.346697,-0.346698 z m 5.549772,0 h 2.68723 c 0.191783,0 0.346697,0.154915 0.346697,0.346698 v 0.503692 c 0,0.191783 -0.154912,0.346697 -0.346697,0.346697 h -2.68723 c -0.191785,0 -0.345389,-0.154914 -0.345389,-0.346697 V 10.71895 c 0,-0.191784 0.153605,-0.346698 0.345389,-0.346698 z m 5.551079,0 h 2.687231 c 0.191776,0 0.345389,0.154915 0.345389,0.346698 v 0.503692 c 0,0.191783 -0.153615,0.346697 -0.345389,0.346697 h -2.687231 c -0.191783,0 -0.346697,-0.154914 -0.346697,-0.346697 V 10.71895 c 0,-0.191784 0.154915,-0.346698 0.346697,-0.346698 z M 7.6588564,12.116205 H 26.33079 c 0.395224,0 0.714327,0.317796 0.714327,0.713019 v 8.205603 c 0,0.395222 -0.319103,0.713019 -0.714327,0.713019 H 7.6588564 c -0.395222,0 -0.7143272,-0.317797 -0.7143271,-0.713019 v -8.205603 c 0,-0.395223 0.3191051,-0.713019 0.7143271,-0.713019 z M 7.3147758,22.407224 h 2.6872302 c 0.191784,0 0.346697,0.153604 0.346697,0.345389 v 0.505001 c 0,0.191784 -0.154913,0.345389 -0.346697,0.345389 H 7.3147758 c -0.1917837,0 -0.3453889,-0.153603 -0.3453889,-0.345389 v -0.505001 c 0,-0.191783 0.1536057,-0.345389 0.3453889,-0.345389 z m 5.5497712,0 h 2.688539 c 0.191784,0 0.345389,0.153604 0.345389,0.345389 v 0.505001 c 0,0.191784 -0.153606,0.345389 -0.345389,0.345389 h -2.688539 c -0.191783,0 -0.345389,-0.153603 -0.345389,-0.345389 v -0.505001 c 0,-0.191783 0.153606,-0.345389 0.345389,-0.345389 z m 5.551081,0 h 2.68723 c 0.191784,0 0.345389,0.153604 0.345389,0.345389 v 0.505001 c 0,0.191784 -0.153603,0.345389 -0.345389,0.345389 h -2.68723 c -0.191784,0 -0.346697,-0.153603 -0.346697,-0.345389 v -0.505001 c 0,-0.191783 0.154913,-0.345389 0.346697,-0.345389 z m 5.549772,0 h 2.68723 c 0.191776,0 0.346697,0.153604 0.346697,0.345389 v 0.505001 c 0,0.191784 -0.154924,0.345389 -0.346697,0.345389 H 23.9654 c -0.191785,0 -0.346698,-0.153603 -0.346698,-0.345389 v -0.505001 c 0,-0.191783 0.154911,-0.345389 0.346698,-0.345389 z" />
    <path
       id="rect177"
       style="fill:#f2f2f2;stroke-width:0.666551"
       d="m 12.810803,12.759024 8.245061,4.174309 -8.245061,4.174311 z"
       sodipodi:nodetypes="ccccc" />
  </g>
</svg>
