<?xml version="1.0" encoding="UTF-8" standalone="no"?>
<svg
   xmlns:dc="http://purl.org/dc/elements/1.1/"
   xmlns:cc="http://creativecommons.org/ns#"
   xmlns:rdf="http://www.w3.org/1999/02/22-rdf-syntax-ns#"
   xmlns:svg="http://www.w3.org/2000/svg"
   xmlns="http://www.w3.org/2000/svg"
   xmlns:xlink="http://www.w3.org/1999/xlink"
   xmlns:sodipodi="http://sodipodi.sourceforge.net/DTD/sodipodi-0.dtd"
   xmlns:inkscape="http://www.inkscape.org/namespaces/inkscape"
   width="16"
   height="16"
   viewBox="0 0 4.2333333 4.2333333"
   version="1.1"
   id="svg8"
   sodipodi:docname="io.elementary.videos2.svg"
   inkscape:version="1.0.1 (3bc2e813f5, 2020-09-07)"
   inkscape:export-filename="/mnt/data/Developments/projects/icons/png/24/io.elementary.videos2.png"
   inkscape:export-xdpi="152.65135"
   inkscape:export-ydpi="152.65135">
  <defs
     id="defs2">
    <linearGradient
       inkscape:collect="always"
       id="linearGradient1007">
      <stop
         style="stop-color:#ffd5d5;stop-opacity:1"
         offset="0"
         id="stop1003" />
      <stop
         style="stop-color:#800000;stop-opacity:1"
         offset="1"
         id="stop1005" />
    </linearGradient>
    <radialGradient
       inkscape:collect="always"
       xlink:href="#linearGradient1007"
       id="radialGradient1009"
       cx="1.5484881"
       cy="0.56700027"
       fx="1.5484881"
       fy="0.56700027"
       r="1.9967067"
       gradientUnits="userSpaceOnUse"
       gradientTransform="matrix(0.60198201,0.6682275,-0.41534544,0.3742038,1.2690816,0.04064133)" />
  </defs>
  <sodipodi:namedview
     id="base"
     pagecolor="#ffffff"
     bordercolor="#666666"
     borderopacity="1.0"
     inkscape:pageopacity="0.0"
     inkscape:pageshadow="2"
     inkscape:zoom="25.806296"
     inkscape:cx="11.172434"
     inkscape:cy="12.893961"
     inkscape:document-units="px"
     inkscape:current-layer="layer1"
     inkscape:document-rotation="0"
     showgrid="false"
     units="px"
     inkscape:window-width="1280"
     inkscape:window-height="961"
     inkscape:window-x="1440"
     inkscape:window-y="30"
     inkscape:window-maximized="1" />
  <metadata
     id="metadata5">
    <rdf:RDF>
      <cc:Work
         rdf:about="">
        <dc:format>image/svg+xml</dc:format>
        <dc:type
           rdf:resource="http://purl.org/dc/dcmitype/StillImage" />
        <dc:title></dc:title>
      </cc:Work>
    </rdf:RDF>
  </metadata>
  <g
     inkscape:label="Слой 1"
     inkscape:groupmode="layer"
     id="layer1">
    <circle
       style="fill:url(#radialGradient1009);fill-opacity:1;stroke-width:0.260882"
       id="path142"
       cx="2.1166666"
       cy="2.1166666"
       r="1.8500377" />
    <path
       id="rect97"
       style="fill:#ffffff;stroke-width:0.0812998"
       d="m 0.90875882,1.2279246 c -0.0669153,0 -0.1208384,0.053923 -0.1208384,0.1208384 v 1.5358072 c 0,0.066915 0.0539233,0.1208385 0.1208384,0.1208385 H 3.3247333 c 0.066915,0 0.1206796,-0.053923 0.1206796,-0.1208385 V 1.348763 c 0,-0.066915 -0.053765,-0.1208382 -0.1206796,-0.1208384 z m 0.0536709,0.092415 H 1.2885822 c 0.023277,0 0.04192,0.018802 0.04192,0.04208 v 0.061134 c 0,0.023277 -0.018643,0.042079 -0.04192,0.042079 H 0.96242949 c -0.023277,0 -0.0420795,-0.018802 -0.0420795,-0.042079 v -0.061134 c 0,-0.023277 0.0188019,-0.042079 0.0420795,-0.042079 z m 0.67358288,0 H 1.962165 c 0.023277,0 0.04208,0.018802 0.04208,0.04208 v 0.061134 c 0,0.023277 -0.018802,0.042079 -0.04208,0.042079 H 1.6360124 c -0.023277,0 -0.042079,-0.018802 -0.042079,-0.042079 v -0.061134 c 0,-0.023277 0.018802,-0.042079 0.042079,-0.042079 z m 0.6735829,0 h 0.3261526 c 0.023277,0 0.042079,0.018802 0.042079,0.04208 v 0.061134 c 0,0.023277 -0.018801,0.042079 -0.042079,0.042079 H 2.3095953 c -0.023277,0 -0.041921,-0.018802 -0.041921,-0.042079 v -0.061134 c 0,-0.023277 0.018643,-0.042079 0.041921,-0.042079 z m 0.6737416,0 h 0.3261527 c 0.023276,0 0.04192,0.018802 0.04192,0.04208 v 0.061134 c 0,0.023277 -0.018645,0.042079 -0.04192,0.042079 H 2.983337 c -0.023277,0 -0.04208,-0.018802 -0.04208,-0.042079 v -0.061134 c 0,-0.023277 0.018802,-0.042079 0.04208,-0.042079 z M 0.99101152,1.5320056 H 3.257248 c 0.047969,0 0.086699,0.038571 0.086699,0.08654 v 0.9959246 c 0,0.047969 -0.03873,0.08654 -0.086699,0.08654 H 0.99101152 c -0.0479689,0 -0.0866988,-0.038571 -0.0866988,-0.08654 V 1.6185456 c 0,-0.047969 0.0387301,-0.08654 0.0866988,-0.08654 z M 0.94925002,2.7810398 H 1.2754026 c 0.023277,0 0.04208,0.018643 0.04208,0.041921 v 0.061293 c 0,0.023277 -0.018802,0.04192 -0.04208,0.04192 H 0.94924983 c -0.023277,0 -0.0419202,-0.018643 -0.0419202,-0.04192 v -0.061293 c 0,-0.023277 0.0186432,-0.041921 0.0419202,-0.04192 z m 0.67358288,0 h 0.3263114 c 0.023277,0 0.04192,0.018643 0.04192,0.041921 v 0.061293 c 0,0.023277 -0.018643,0.04192 -0.04192,0.04192 H 1.6228329 c -0.023277,0 -0.04192,-0.018643 -0.04192,-0.04192 v -0.061293 c 0,-0.023277 0.018643,-0.041921 0.04192,-0.041921 z m 0.6737417,0 h 0.3261526 c 0.023277,0 0.041921,0.018643 0.041921,0.041921 v 0.061293 c 0,0.023277 -0.018643,0.04192 -0.041921,0.04192 H 2.2965746 c -0.023277,0 -0.042079,-0.018643 -0.042079,-0.04192 v -0.061293 c 0,-0.023277 0.018802,-0.041921 0.04208,-0.04192 z m 0.6735829,0 h 0.3261526 c 0.023276,0 0.042079,0.018643 0.042079,0.041921 v 0.061293 c 0,0.023277 -0.018804,0.04192 -0.042079,0.04192 H 2.9701573 c -0.023277,0 -0.042079,-0.018643 -0.042079,-0.04192 v -0.061293 c 0,-0.023277 0.018801,-0.041921 0.042079,-0.04192 z" />
    <path
       id="rect177"
       style="fill:#f2f2f2;stroke-width:0.0809002"
       d="M 1.6163099,1.6100253 2.6170234,2.1166667 1.6163099,2.623308 Z"
       sodipodi:nodetypes="ccccc" />
  </g>
</svg>
