<?xml version="1.0" encoding="UTF-8" standalone="no"?>
<svg
   xmlns:dc="http://purl.org/dc/elements/1.1/"
   xmlns:cc="http://creativecommons.org/ns#"
   xmlns:rdf="http://www.w3.org/1999/02/22-rdf-syntax-ns#"
   xmlns:svg="http://www.w3.org/2000/svg"
   xmlns="http://www.w3.org/2000/svg"
   xmlns:xlink="http://www.w3.org/1999/xlink"
   xmlns:sodipodi="http://sodipodi.sourceforge.net/DTD/sodipodi-0.dtd"
   xmlns:inkscape="http://www.inkscape.org/namespaces/inkscape"
   width="64"
   height="64"
   viewBox="0 0 16.933333 16.933333"
   version="1.1"
   id="svg8"
   sodipodi:docname="io.elementary.videos2.svg"
   inkscape:version="1.0.1 (3bc2e813f5, 2020-09-07)"
   inkscape:export-filename="/mnt/data/Developments/projects/icons/png/24/io.elementary.videos2.png"
   inkscape:export-xdpi="152.65135"
   inkscape:export-ydpi="152.65135">
  <defs
     id="defs2">
    <linearGradient
       inkscape:collect="always"
       id="linearGradient1007">
      <stop
         style="stop-color:#ffd5d5;stop-opacity:1"
         offset="0"
         id="stop1003" />
      <stop
         style="stop-color:#800000;stop-opacity:1"
         offset="1"
         id="stop1005" />
    </linearGradient>
    <radialGradient
       inkscape:collect="always"
       xlink:href="#linearGradient1007"
       id="radialGradient1009"
       cx="1.5484881"
       cy="0.56700027"
       fx="1.5484881"
       fy="0.56700027"
       r="1.9967067"
       gradientUnits="userSpaceOnUse"
       gradientTransform="matrix(2.4938536,2.7682915,-1.7206673,1.5502284,4.9553443,-0.13376234)" />
  </defs>
  <sodipodi:namedview
     id="base"
     pagecolor="#ffffff"
     bordercolor="#666666"
     borderopacity="1.0"
     inkscape:pageopacity="0.0"
     inkscape:pageshadow="2"
     inkscape:zoom="9.1239035"
     inkscape:cx="35.675777"
     inkscape:cy="35.038386"
     inkscape:document-units="px"
     inkscape:current-layer="layer1"
     inkscape:document-rotation="0"
     showgrid="false"
     units="px"
     inkscape:window-width="1280"
     inkscape:window-height="961"
     inkscape:window-x="1440"
     inkscape:window-y="30"
     inkscape:window-maximized="1" />
  <metadata
     id="metadata5">
    <rdf:RDF>
      <cc:Work
         rdf:about="">
        <dc:format>image/svg+xml</dc:format>
        <dc:type
           rdf:resource="http://purl.org/dc/dcmitype/StillImage" />
        <dc:title></dc:title>
      </cc:Work>
    </rdf:RDF>
  </metadata>
  <g
     inkscape:label="Слой 1"
     inkscape:groupmode="layer"
     id="layer1">
    <circle
       style="fill:url(#radialGradient1009);fill-opacity:1;stroke-width:1.08076"
       id="path142"
       cx="8.4666662"
       cy="8.4666662"
       r="7.6642208" />
    <path
       id="rect97"
       style="fill:#ffffff;stroke-width:0.336804"
       d="m 3.4626216,4.784842 c -0.2772123,0 -0.5006019,0.2233897 -0.5006019,0.5006022 V 11.64789 c 0,0.277213 0.2233896,0.500601 0.5006019,0.500601 H 13.47137 c 0.277212,0 0.499943,-0.223388 0.499943,-0.500601 V 5.2854441 c 0,-0.2772124 -0.222731,-0.5006019 -0.499943,-0.5006022 z m 0.2223436,0.3828517 h 1.3511643 c 0.096431,0 0.1736649,0.077892 0.1736649,0.1743229 v 0.2532611 c 0,0.09643 -0.077233,0.1743225 -0.1736649,0.1743225 H 3.6849652 c -0.096431,0 -0.1743227,-0.077892 -0.1743227,-0.1743225 v -0.253261 c 0,-0.096431 0.077891,-0.1743229 0.1743227,-0.174323 z m 2.7904772,0 h 1.3511645 c 0.096431,0 0.1743224,0.077892 0.1743224,0.1743229 v 0.2532611 c 0,0.09643 -0.077892,0.1743225 -0.1743224,0.1743225 H 6.4754424 c -0.096431,0 -0.1743225,-0.077892 -0.1743225,-0.1743225 v -0.253261 c 0,-0.096431 0.077891,-0.1743229 0.1743225,-0.174323 z m 2.7904773,0 h 1.3511643 c 0.09643,0 0.174322,0.077892 0.174322,0.1743229 v 0.2532611 c 0,0.09643 -0.07789,0.1743225 -0.174322,0.1743225 H 9.2659197 c -0.096431,0 -0.1736647,-0.077892 -0.1736647,-0.1743225 v -0.253261 c 0,-0.096431 0.077233,-0.1743229 0.1736647,-0.174323 z m 2.7911343,0 h 1.351164 c 0.09643,0 0.173666,0.077892 0.173666,0.1743229 v 0.2532611 c 0,0.09643 -0.07723,0.1743225 -0.173666,0.1743225 h -1.351164 c -0.09643,0 -0.174323,-0.077892 -0.174323,-0.1743225 v -0.253261 c 0,-0.096431 0.07789,-0.1743229 0.174323,-0.174323 z M 3.8033731,6.0445695 h 9.3884219 c 0.198723,0 0.359171,0.1597908 0.359171,0.3585126 v 4.1258539 c 0,0.198721 -0.160448,0.358512 -0.359171,0.358512 H 3.8033731 c -0.1987214,0 -0.3591705,-0.159791 -0.3591705,-0.358512 V 6.4030821 c 0,-0.1987218 0.1604491,-0.3585126 0.3591705,-0.3585126 z M 3.6303661,11.21899 h 1.3511644 c 0.096431,0 0.1743224,0.07723 0.1743224,0.173665 v 0.253919 c 0,0.09643 -0.077891,0.173665 -0.1743224,0.173665 H 3.6303661 c -0.096431,0 -0.1736648,-0.07723 -0.1736648,-0.173665 v -0.253919 c 0,-0.09643 0.077234,-0.173665 0.1736648,-0.173665 z m 2.7904768,0 h 1.3518225 c 0.096431,0 0.1736648,0.07723 0.1736648,0.173665 v 0.253919 c 0,0.09643 -0.077234,0.173665 -0.1736648,0.173665 H 6.4208429 c -0.09643,0 -0.1736648,-0.07723 -0.1736648,-0.173665 v -0.253919 c 0,-0.09643 0.077234,-0.173665 0.1736648,-0.173665 z m 2.7911354,0 h 1.3511637 c 0.09643,0 0.173666,0.07723 0.173666,0.173665 v 0.253919 c 0,0.09643 -0.07723,0.173665 -0.173666,0.173665 H 9.2119783 c -0.096431,0 -0.1743225,-0.07723 -0.1743225,-0.173665 v -0.253919 c 0,-0.09643 0.077892,-0.173665 0.1743225,-0.173665 z m 2.7904767,0 h 1.351165 c 0.09643,0 0.174322,0.07723 0.174322,0.173665 v 0.253919 c 0,0.09643 -0.07789,0.173665 -0.174322,0.173665 h -1.351165 c -0.09643,0 -0.174323,-0.07723 -0.174323,-0.173665 v -0.253919 c 0,-0.09643 0.07789,-0.173665 0.174323,-0.173665 z" />
    <path
       id="rect177"
       style="fill:#f2f2f2;stroke-width:0.335148"
       d="M 6.3938197,6.3677849 10.539513,8.4666666 6.3938197,10.565548 Z"
       sodipodi:nodetypes="ccccc" />
  </g>
</svg>
